<svg xmlns="http://www.w3.org/2000/svg" width="161.032" height="41.684" viewBox="0 0 161.032 41.684">
  <g id="Group_12688" data-name="Group 12688" transform="translate(-752.975 -368.501)">
    <path id="Path_4901" data-name="Path 4901" d="M774.745,422.543a1.16,1.16,0,0,1-1.161,1.16H754.522a1.547,1.547,0,0,1-1.547-1.547V392.2a1.547,1.547,0,0,1,1.547-1.547h19.062a1.16,1.16,0,0,1,1.161,1.16v3.435a1.16,1.16,0,0,1-1.161,1.16h-13.77a.387.387,0,0,0-.387.387v6.978a.387.387,0,0,0,.387.387h9.175a1.16,1.16,0,0,1,1.16,1.16v3.435a1.16,1.16,0,0,1-1.16,1.16h-9.175a.387.387,0,0,0-.387.386l-.007,7.294a.387.387,0,0,0,.388.387l13.776-.038a1.16,1.16,0,0,1,1.161,1.16Z" transform="translate(0 -13.797)" fill="#fff"/>
    <path id="Path_4902" data-name="Path 4902" d="M843.64,423.7h-5.459a1.16,1.16,0,0,1-1.027-.62l-6.017-11.428a.386.386,0,0,0-.342-.207h-4.021a.387.387,0,0,0-.387.387v10.707a1.16,1.16,0,0,1-1.16,1.16H821.1a1.16,1.16,0,0,1-1.16-1.16V392.2a1.547,1.547,0,0,1,1.547-1.547h11.4a10.115,10.115,0,0,1,10.722,10.583,9.681,9.681,0,0,1-1.741,5.779,9.02,9.02,0,0,1-4.294,3.365l6.744,12.173A.774.774,0,0,1,843.64,423.7Zm-7.808-19.054a4.967,4.967,0,0,0,1.323-3.528,4.662,4.662,0,0,0-1.276-3.412,4.568,4.568,0,0,0-3.412-1.3h-5.694a.387.387,0,0,0-.387.387v8.881a.387.387,0,0,0,.387.387h5.694A4.4,4.4,0,0,0,835.833,404.65Z" transform="translate(-41.214 -13.797)" fill="#fff"/>
    <path id="Path_4903" data-name="Path 4903" d="M898.942,423.7H894.81a1.16,1.16,0,0,1-1.16-1.16V391.815a1.16,1.16,0,0,1,1.16-1.16h4.131a1.16,1.16,0,0,1,1.16,1.16v30.728A1.16,1.16,0,0,1,898.942,423.7Z" transform="translate(-86.549 -13.797)" fill="#fff"/>
    <path id="Path_4904" data-name="Path 4904" d="M1087.1,423.7h-4.131a1.16,1.16,0,0,1-1.16-1.16V410.723a.387.387,0,0,0-.387-.387h-11.342a.387.387,0,0,0-.387.387v11.821a1.16,1.16,0,0,1-1.16,1.16H1064.4a1.16,1.16,0,0,1-1.16-1.16V391.815a1.16,1.16,0,0,1,1.16-1.16h4.131a1.16,1.16,0,0,1,1.16,1.16V404.24a.387.387,0,0,0,.387.387h11.342a.387.387,0,0,0,.387-.387V391.815a1.16,1.16,0,0,1,1.16-1.16h4.131a1.16,1.16,0,0,1,1.16,1.16v30.728A1.16,1.16,0,0,1,1087.1,423.7Z" transform="translate(-191.072 -13.797)" fill="#fff"/>
    <path id="Path_4905" data-name="Path 4905" d="M1145.983,434.182h-4.13a1.16,1.16,0,0,1-1.16-1.16V408.9a1.16,1.16,0,0,1,1.16-1.16h4.13a1.16,1.16,0,0,1,1.161,1.16v24.118A1.16,1.16,0,0,1,1145.983,434.182Z" transform="translate(-238.567 -24.276)" fill="#fff"/>
    <path id="Path_4906" data-name="Path 4906" d="M926.648,422.143a10.03,10.03,0,0,1-4.171-3.919,11.355,11.355,0,0,1-1.467-5.821V401.027a11.357,11.357,0,0,1,1.467-5.821,9.892,9.892,0,0,1,4.171-3.9,13.674,13.674,0,0,1,6.28-1.375,14.014,14.014,0,0,1,6.211,1.306,9.862,9.862,0,0,1,4.171,3.713,10.368,10.368,0,0,1,1.49,5.569h0a.691.691,0,0,1-.691.691H939.03a.694.694,0,0,1-.694-.694h0a4.507,4.507,0,0,0-1.49-3.572,5.347,5.347,0,0,0-3.919-1.467,5.406,5.406,0,0,0-3.965,1.467,5.221,5.221,0,0,0-1.49,3.9v11.833a5.159,5.159,0,0,0,1.49,3.85,5.4,5.4,0,0,0,3.965,1.467,5.343,5.343,0,0,0,3.919-1.467,5.164,5.164,0,0,0,1.49-3.85v-1.53a.7.7,0,0,1,.7-.7h5.07a.7.7,0,0,1,.7.7v1.713a10.483,10.483,0,0,1-1.49,5.592,9.956,9.956,0,0,1-4.171,3.759,13.807,13.807,0,0,1-6.211,1.329A13.48,13.48,0,0,1,926.648,422.143Z" transform="translate(-103.425 -13.356)" fill="#fff"/>
    <path id="Path_4907" data-name="Path 4907" d="M996.693,422.143a10.031,10.031,0,0,1-4.171-3.919,11.357,11.357,0,0,1-1.467-5.821V401.027a11.359,11.359,0,0,1,1.467-5.821,9.892,9.892,0,0,1,4.171-3.9,13.673,13.673,0,0,1,6.279-1.375,14.014,14.014,0,0,1,6.211,1.306,9.865,9.865,0,0,1,4.171,3.713,10.369,10.369,0,0,1,1.49,5.569h0a.691.691,0,0,1-.691.691h-5.078a.694.694,0,0,1-.694-.694h0a4.506,4.506,0,0,0-1.49-3.572,5.346,5.346,0,0,0-3.919-1.467,5.406,5.406,0,0,0-3.965,1.467,5.222,5.222,0,0,0-1.489,3.9v11.833a5.161,5.161,0,0,0,1.489,3.85,5.4,5.4,0,0,0,3.965,1.467,5.342,5.342,0,0,0,3.919-1.467,5.164,5.164,0,0,0,1.49-3.85v-1.53a.7.7,0,0,1,.7-.7h5.071a.7.7,0,0,1,.7.7v1.713a10.484,10.484,0,0,1-1.49,5.592,9.959,9.959,0,0,1-4.171,3.759,13.808,13.808,0,0,1-6.211,1.329A13.479,13.479,0,0,1,996.693,422.143Z" transform="translate(-146.537 -13.356)" fill="#fff"/>
    <path id="Path_4908" data-name="Path 4908" d="M1142.166,380.256a1.416,1.416,0,0,1-1.343-1.348v0c-.223-4.564-.372-7.576,1.385-9.333a3.554,3.554,0,0,1,3.09-1.025,3.8,3.8,0,0,1,3.143,4.088,3.8,3.8,0,0,1,4.088,3.143,3.556,3.556,0,0,1-1.025,3.09c-1.757,1.757-4.769,1.608-9.338,1.389Z" transform="translate(-238.567)" fill="#fff" opacity="0.7"/>
  </g>
</svg>
