<svg width="200" height="200" viewBox="0 0 200 200" fill="none" xmlns="http://www.w3.org/2000/svg">
<g id="assets">
<g id="icon">
<rect id="Background" x="1" y="1" width="198" height="198" fill="white" stroke="#607D8B" stroke-width="2"/>
<path id="Text" d="M76.2725 88H72.7861V73.8906H56.9951V88H53.5088V58.0176H56.9951V70.7734H72.7861V58.0176H76.2725V88ZM93.499 88.4102C90.1768 88.4102 87.5518 87.3984 85.624 85.375C83.71 83.3516 82.7529 80.542 82.7529 76.9463C82.7529 73.3232 83.6416 70.4453 85.4189 68.3125C87.21 66.1797 89.6094 65.1133 92.6172 65.1133C95.4336 65.1133 97.6621 66.043 99.3027 67.9023C100.943 69.748 101.764 72.1885 101.764 75.2236V77.377H86.2803C86.3486 80.0156 87.0117 82.0186 88.2695 83.3857C89.541 84.7529 91.3252 85.4365 93.6221 85.4365C96.042 85.4365 98.4346 84.9307 100.8 83.9189V86.9541C99.5967 87.4736 98.4551 87.8428 97.375 88.0615C96.3086 88.2939 95.0166 88.4102 93.499 88.4102ZM92.5762 67.9639C90.7715 67.9639 89.3291 68.5518 88.249 69.7275C87.1826 70.9033 86.5537 72.5303 86.3623 74.6084H98.1133C98.1133 72.4619 97.6348 70.8213 96.6777 69.6865C95.7207 68.5381 94.3535 67.9639 92.5762 67.9639ZM110.992 88H107.588V56.0898H110.992V88ZM121.615 88H118.211V56.0898H121.615V88ZM148.234 76.7412C148.234 80.4053 147.312 83.2695 145.466 85.334C143.62 87.3848 141.07 88.4102 137.816 88.4102C135.807 88.4102 134.022 87.9385 132.464 86.9951C130.905 86.0518 129.702 84.6982 128.854 82.9346C128.007 81.1709 127.583 79.1064 127.583 76.7412C127.583 73.0771 128.499 70.2266 130.331 68.1895C132.163 66.1387 134.706 65.1133 137.96 65.1133C141.104 65.1133 143.6 66.1592 145.445 68.251C147.305 70.3428 148.234 73.1729 148.234 76.7412ZM131.11 76.7412C131.11 79.6123 131.685 81.7998 132.833 83.3037C133.981 84.8076 135.67 85.5596 137.898 85.5596C140.127 85.5596 141.815 84.8145 142.964 83.3242C144.126 81.8203 144.707 79.626 144.707 76.7412C144.707 73.8838 144.126 71.7168 142.964 70.2402C141.815 68.75 140.113 68.0049 137.857 68.0049C135.629 68.0049 133.947 68.7363 132.812 70.1992C131.678 71.6621 131.11 73.8428 131.11 76.7412ZM71.3916 145H67.9463L61.8965 124.923C61.6094 124.034 61.2881 122.913 60.9326 121.56C60.5771 120.206 60.3926 119.393 60.3789 119.119C60.0781 120.924 59.5996 122.899 58.9434 125.046L53.0781 145H49.6328L41.6553 115.018H45.3467L50.084 133.536C50.7402 136.134 51.2188 138.485 51.5195 140.591C51.8887 138.089 52.4355 135.642 53.1602 133.249L58.5332 115.018H62.2246L67.8643 133.413C68.5205 135.532 69.0742 137.925 69.5254 140.591C69.7852 138.649 70.2773 136.284 71.002 133.495L75.7188 115.018H79.4102L71.3916 145ZM102.994 133.741C102.994 137.405 102.071 140.27 100.226 142.334C98.3799 144.385 95.8301 145.41 92.5762 145.41C90.5664 145.41 88.7822 144.938 87.2236 143.995C85.665 143.052 84.4619 141.698 83.6143 139.935C82.7666 138.171 82.3428 136.106 82.3428 133.741C82.3428 130.077 83.2588 127.227 85.0908 125.189C86.9229 123.139 89.4658 122.113 92.7197 122.113C95.8643 122.113 98.3594 123.159 100.205 125.251C102.064 127.343 102.994 130.173 102.994 133.741ZM85.8701 133.741C85.8701 136.612 86.4443 138.8 87.5928 140.304C88.7412 141.808 90.4297 142.56 92.6582 142.56C94.8867 142.56 96.5752 141.814 97.7236 140.324C98.8857 138.82 99.4668 136.626 99.4668 133.741C99.4668 130.884 98.8857 128.717 97.7236 127.24C96.5752 125.75 94.873 125.005 92.6172 125.005C90.3887 125.005 88.707 125.736 87.5723 127.199C86.4375 128.662 85.8701 130.843 85.8701 133.741ZM119.236 122.113C120.234 122.113 121.13 122.195 121.923 122.359L121.451 125.518C120.521 125.312 119.701 125.21 118.99 125.21C117.172 125.21 115.613 125.948 114.314 127.425C113.029 128.901 112.387 130.74 112.387 132.941V145H108.982V122.523H111.792L112.182 126.687H112.346C113.18 125.224 114.185 124.096 115.36 123.303C116.536 122.51 117.828 122.113 119.236 122.113ZM129.531 145H126.127V113.09H129.531V145ZM152.049 141.985H151.864C150.292 144.269 147.94 145.41 144.81 145.41C141.87 145.41 139.58 144.405 137.939 142.396C136.312 140.386 135.499 137.528 135.499 133.823C135.499 130.118 136.319 127.24 137.96 125.189C139.601 123.139 141.884 122.113 144.81 122.113C147.858 122.113 150.196 123.221 151.823 125.436H152.09L151.946 123.815L151.864 122.236V113.09H155.269V145H152.5L152.049 141.985ZM145.24 142.56C147.564 142.56 149.246 141.931 150.285 140.673C151.338 139.401 151.864 137.357 151.864 134.541V133.823C151.864 130.638 151.331 128.368 150.265 127.015C149.212 125.647 147.523 124.964 145.199 124.964C143.203 124.964 141.672 125.743 140.605 127.302C139.553 128.847 139.026 131.034 139.026 133.864C139.026 136.735 139.553 138.902 140.605 140.365C141.658 141.828 143.203 142.56 145.24 142.56Z" fill="#607D8B"/>
</g>
</g>
</svg>
