<svg width="200" height="200" viewBox="0 0 200 200" fill="none" xmlns="http://www.w3.org/2000/svg">
<g id="assets">
<g id="logo">
<rect id="Background" x="1" y="1" width="198" height="198" stroke="#607D8B" stroke-width="2"/>
<path id="Text" d="M72.8828 86H68.8984V69.875H50.8516V86H46.8672V51.7344H50.8516V66.3125H68.8984V51.7344H72.8828V86ZM92.5703 86.4688C88.7734 86.4688 85.7734 85.3125 83.5703 83C81.3828 80.6875 80.2891 77.4766 80.2891 73.3672C80.2891 69.2266 81.3047 65.9375 83.3359 63.5C85.3828 61.0625 88.125 59.8438 91.5625 59.8438C94.7812 59.8438 97.3281 60.9062 99.2031 63.0312C101.078 65.1406 102.016 67.9297 102.016 71.3984V73.8594H84.3203C84.3984 76.875 85.1562 79.1641 86.5938 80.7266C88.0469 82.2891 90.0859 83.0703 92.7109 83.0703C95.4766 83.0703 98.2109 82.4922 100.914 81.3359V84.8047C99.5391 85.3984 98.2344 85.8203 97 86.0703C95.7812 86.3359 94.3047 86.4688 92.5703 86.4688ZM91.5156 63.1016C89.4531 63.1016 87.8047 63.7734 86.5703 65.1172C85.3516 66.4609 84.6328 68.3203 84.4141 70.6953H97.8438C97.8438 68.2422 97.2969 66.3672 96.2031 65.0703C95.1094 63.7578 93.5469 63.1016 91.5156 63.1016ZM112.562 86H108.672V49.5312H112.562V86ZM124.703 86H120.812V49.5312H124.703V86ZM155.125 73.1328C155.125 77.3203 154.07 80.5938 151.961 82.9531C149.852 85.2969 146.938 86.4688 143.219 86.4688C140.922 86.4688 138.883 85.9297 137.102 84.8516C135.32 83.7734 133.945 82.2266 132.977 80.2109C132.008 78.1953 131.523 75.8359 131.523 73.1328C131.523 68.9453 132.57 65.6875 134.664 63.3594C136.758 61.0156 139.664 59.8438 143.383 59.8438C146.977 59.8438 149.828 61.0391 151.938 63.4297C154.062 65.8203 155.125 69.0547 155.125 73.1328ZM135.555 73.1328C135.555 76.4141 136.211 78.9141 137.523 80.6328C138.836 82.3516 140.766 83.2109 143.312 83.2109C145.859 83.2109 147.789 82.3594 149.102 80.6562C150.43 78.9375 151.094 76.4297 151.094 73.1328C151.094 69.8672 150.43 67.3906 149.102 65.7031C147.789 64 145.844 63.1484 143.266 63.1484C140.719 63.1484 138.797 63.9844 137.5 65.6562C136.203 67.3281 135.555 69.8203 135.555 73.1328ZM67.3047 151H63.3672L56.4531 128.055C56.125 127.039 55.7578 125.758 55.3516 124.211C54.9453 122.664 54.7344 121.734 54.7188 121.422C54.375 123.484 53.8281 125.742 53.0781 128.195L46.375 151H42.4375L33.3203 116.734H37.5391L42.9531 137.898C43.7031 140.867 44.25 143.555 44.5938 145.961C45.0156 143.102 45.6406 140.305 46.4688 137.57L52.6094 116.734H56.8281L63.2734 137.758C64.0234 140.18 64.6562 142.914 65.1719 145.961C65.4688 143.742 66.0312 141.039 66.8594 137.852L72.25 116.734H76.4688L67.3047 151ZM103.422 138.133C103.422 142.32 102.367 145.594 100.258 147.953C98.1484 150.297 95.2344 151.469 91.5156 151.469C89.2188 151.469 87.1797 150.93 85.3984 149.852C83.6172 148.773 82.2422 147.227 81.2734 145.211C80.3047 143.195 79.8203 140.836 79.8203 138.133C79.8203 133.945 80.8672 130.688 82.9609 128.359C85.0547 126.016 87.9609 124.844 91.6797 124.844C95.2734 124.844 98.125 126.039 100.234 128.43C102.359 130.82 103.422 134.055 103.422 138.133ZM83.8516 138.133C83.8516 141.414 84.5078 143.914 85.8203 145.633C87.1328 147.352 89.0625 148.211 91.6094 148.211C94.1562 148.211 96.0859 147.359 97.3984 145.656C98.7266 143.938 99.3906 141.43 99.3906 138.133C99.3906 134.867 98.7266 132.391 97.3984 130.703C96.0859 129 94.1406 128.148 91.5625 128.148C89.0156 128.148 87.0938 128.984 85.7969 130.656C84.5 132.328 83.8516 134.82 83.8516 138.133ZM121.984 124.844C123.125 124.844 124.148 124.938 125.055 125.125L124.516 128.734C123.453 128.5 122.516 128.383 121.703 128.383C119.625 128.383 117.844 129.227 116.359 130.914C114.891 132.602 114.156 134.703 114.156 137.219V151H110.266V125.312H113.477L113.922 130.07H114.109C115.062 128.398 116.211 127.109 117.555 126.203C118.898 125.297 120.375 124.844 121.984 124.844ZM133.75 151H129.859V114.531H133.75V151ZM159.484 147.555H159.273C157.477 150.164 154.789 151.469 151.211 151.469C147.852 151.469 145.234 150.32 143.359 148.023C141.5 145.727 140.57 142.461 140.57 138.227C140.57 133.992 141.508 130.703 143.383 128.359C145.258 126.016 147.867 124.844 151.211 124.844C154.695 124.844 157.367 126.109 159.227 128.641H159.531L159.367 126.789L159.273 124.984V114.531H163.164V151H160L159.484 147.555ZM151.703 148.211C154.359 148.211 156.281 147.492 157.469 146.055C158.672 144.602 159.273 142.266 159.273 139.047V138.227C159.273 134.586 158.664 131.992 157.445 130.445C156.242 128.883 154.312 128.102 151.656 128.102C149.375 128.102 147.625 128.992 146.406 130.773C145.203 132.539 144.602 135.039 144.602 138.273C144.602 141.555 145.203 144.031 146.406 145.703C147.609 147.375 149.375 148.211 151.703 148.211Z" fill="#607D8B"/>
</g>
</g>
</svg>
